<svg id="Layer_1" enable-background="new 0 0 512 512" height="512" viewBox="0 0 512 512" width="512" xmlns="http://www.w3.org/2000/svg"><g id="XMLID_1012_"><g fill="#8aa8bd"><path id="XMLID_1017_" d="m407 10h-56c-11.046 0-20 8.954-20 20v20h96v-20c0-11.046-8.954-20-20-20z"/><path id="XMLID_1016_" d="m314 502c11.046 0 20-8.954 20-20v-20h-40v20c0 11.046 8.954 20 20 20z"/><path id="XMLID_1015_" d="m444 502c-11.046 0-20-8.954-20-20v-20h40v20c0 11.046-8.954 20-20 20z"/></g><path id="XMLID_1014_" d="m482 147h-206c-11.046 0-20 8.954-20 20v275c0 11.046 8.954 20 20 20h206c11.046 0 20-8.954 20-20v-275c0-11.046-8.954-20-20-20z" fill="#faf7f5"/><path id="XMLID_1013_" d="m449.5 147h-141c0 28.995-23.505 52.5-52.5 52.5v262.5h193.5c0-28.995 23.505-52.5 52.5-52.5v-210c-28.995 0-52.5-23.505-52.5-52.5z" fill="#ff7d97"/><path id="XMLID_1007_" d="m274 310h-244c-11.046 0-20 8.954-20 20v152c0 11.046 8.954 20 20 20h244c11.046 0 20-8.954 20-20v-152c0-11.046-8.954-20-20-20z" fill="#ffcd69"/><path id="XMLID_1006_" d="m236.667 310h-169.334c0 31.664-25.669 57.333-57.333 57.333v77.333c31.664 0 57.333 25.669 57.333 57.333h169.333c0-31.664 25.669-57.333 57.333-57.333v-77.333c-31.663 0-57.332-25.669-57.332-57.333z" fill="#d1a184"/><circle id="XMLID_1005_" cx="209.333" cy="396.333" fill="#33d6f5" r="27.333"/><path id="XMLID_1004_" d="m71.687 400.813h71.667v42h-71.667z" fill="#ff7d97" transform="matrix(.707 .707 -.707 .707 329.759 47.518)"/><path id="XMLID_1003_" d="m356.29 344.813h55.419v42h-55.419z" fill="#ffcd69" transform="matrix(-.707 .707 -.707 -.707 914.198 352.953)"/><path id="XMLID_986_" d="m344.819 265.961 24.714-42.806c4.207-7.287 14.726-7.287 18.933 0l24.714 42.806c4.207 7.288-1.052 16.397-9.467 16.397h-49.428c-8.414 0-13.673-9.109-9.466-16.397z" fill="#fff"/><g id="XMLID_281_"><path id="XMLID_2416_" d="m209.333 359c-20.585 0-37.333 16.748-37.333 37.333s16.748 37.333 37.333 37.333 37.333-16.748 37.333-37.333c.001-20.585-16.747-37.333-37.333-37.333zm0 54.667c-9.558 0-17.333-7.775-17.333-17.333s7.776-17.334 17.333-17.334 17.333 7.776 17.333 17.333-7.775 17.334-17.333 17.334z"/><path id="XMLID_2419_" d="m104.103 374.554c-1.875-1.875-4.419-2.929-7.071-2.929s-5.196 1.054-7.071 2.929l-29.698 29.699c-3.905 3.905-3.905 10.237 0 14.142l50.676 50.676c1.953 1.953 4.512 2.929 7.071 2.929s5.119-.977 7.071-2.929l29.699-29.698c1.875-1.875 2.929-4.419 2.929-7.071s-1.054-5.196-2.929-7.071zm13.906 73.304-36.534-36.534 15.556-15.557 36.534 36.534z"/><path id="XMLID_2422_" d="m372.185 407.327c1.875 1.875 4.419 2.929 7.071 2.929s5.196-1.054 7.071-2.929l39.187-39.188c1.875-1.875 2.929-4.419 2.929-7.071s-1.054-5.196-2.929-7.071l-29.699-29.698c-3.905-3.905-10.237-3.904-14.142 0l-39.187 39.187c-3.905 3.905-3.905 10.237 0 14.143zm16.559-61.815 15.557 15.556-25.045 25.045-15.557-15.557z"/><path id="XMLID_2425_" d="m403.714 292.358c7.567 0 14.344-3.913 18.127-10.466 3.784-6.553 3.784-14.378 0-20.931l-24.714-42.806c-3.784-6.553-10.56-10.465-18.127-10.465s-14.343 3.912-18.127 10.465l-24.714 42.806c-3.784 6.553-3.784 14.378 0 20.931 3.783 6.553 10.56 10.466 18.127 10.466zm-50.235-20.466c-.269-.465-.087-.78 0-.931l24.714-42.805c.087-.151.269-.466.807-.466s.719.314.807.465l24.714 42.806c.087.151.269.466 0 .931-.269.466-.632.466-.807.466h-49.428c-.175 0-.537 0-.807-.466z"/><path id="XMLID_2428_" d="m482 137h-45v-107c0-16.542-13.458-30-30-30h-56c-16.542 0-30 13.458-30 30v107h-45c-16.542 0-30 13.458-30 30v133h-32v-23.667c0-11.212-9.122-20.333-20.333-20.333h-83.333c-11.212 0-20.334 9.122-20.334 20.333v23.667h-60c-16.542 0-30 13.458-30 30v152c0 16.542 13.458 30 30 30h244c7.678 0 14.688-2.902 20-7.663 5.312 4.761 12.322 7.663 20 7.663 16.542 0 30-13.458 30-30v-10h70v10c0 16.542 13.458 30 30 30s30-13.458 30-30v-10h8c16.542 0 30-13.458 30-30v-92.5c0-5.523-4.477-10-10-10s-10 4.477-10 10v50.81c-26.466 4.275-47.415 25.224-51.69 51.69h-136.31v-122c0-16.542-13.458-30-30-30h-8v-91.31c26.466-4.275 47.415-25.224 51.69-51.69h122.62c4.275 26.466 25.224 47.415 51.69 51.69v50.81c0 5.523 4.477 10 10 10s10-4.477 10-10v-92.5c0-16.542-13.458-30-30-30zm-372 139.333c0-.184.149-.333.333-.333h83.333c.184 0 .333.149.333.333v23.667h-84v-23.667zm-80 43.667h26.261c-3.907 18.086-18.175 32.354-36.261 36.261v-26.261c0-5.514 4.486-10 10-10zm-10 162v-26.261c18.086 3.906 32.354 18.174 36.261 36.261h-26.261c-5.514 0-10-4.486-10-10zm56.593 10c-4.357-29.14-27.453-52.236-56.593-56.593v-58.814c29.14-4.357 52.236-27.453 56.593-56.593h150.814c4.356 29.14 27.453 52.236 56.593 56.593v58.814c-29.14 4.356-52.236 27.453-56.593 56.593zm197.407 0h-26.261c3.906-18.086 18.174-32.354 36.261-36.261v26.261c0 5.514-4.486 10-10 10zm218-71.301v21.301c0 5.514-4.486 10-10 10h-21.301c3.733-15.414 15.887-27.568 31.301-31.301zm-38 51.301v10c0 5.514-4.486 10-10 10s-10-4.486-10-10v-10zm-130 0v10c0 5.514-4.486 10-10 10s-10-4.486-10-10v-10zm-40-142v26.261c-18.086-3.906-32.354-18.174-36.261-36.261h26.261c5.514 0 10 4.486 10 10zm67-310h56c5.514 0 10 4.486 10 10v10h-76v-10c0-5.514 4.486-10 10-10zm-85 168.301v-21.301c0-5.514 4.486-10 10-10h21.301c-3.733 15.414-15.887 27.568-31.301 31.301zm75-51.301v-77h76v77zm119.699 20h21.301c5.514 0 10 4.486 10 10v21.301c-15.414-3.733-27.568-15.887-31.301-31.301z"/><path id="XMLID_2441_" d="m502 294.5c-2.63 0-5.21 1.07-7.07 2.93s-2.93 4.44-2.93 7.07 1.07 5.21 2.93 7.07 4.44 2.93 7.07 2.93 5.21-1.07 7.07-2.93 2.93-4.44 2.93-7.07-1.07-5.21-2.93-7.07-4.44-2.93-7.07-2.93z"/></g></g></svg>